Coordinates
version=1
nRows=5
nColumns=40
inDegrees=yes

Units are S.I. units (second, meters, Newtons, ...)
Angles are in degrees.

endheader
time	pelvis_tilt	pelvis_list	pelvis_rotation	pelvis_tx	pelvis_ty	pelvis_tz	hip_flexion_r	hip_adduction_r	hip_rotation_r	knee_angle_r	knee_angle_r_beta	ankle_angle_r	subtalar_angle_r	mtp_angle_r	hip_flexion_l	hip_adduction_l	hip_rotation_l	knee_angle_l	knee_angle_l_beta	ankle_angle_l	subtalar_angle_l	mtp_angle_l	lumbar_extension	lumbar_bending	lumbar_rotation	arm_flex_r	arm_add_r	arm_rot_r	elbow_flex_r	pro_sup_r	wrist_flex_r	wrist_dev_r	arm_flex_l	arm_add_l	arm_rot_l	elbow_flex_l	pro_sup_l	wrist_flex_l	wrist_dev_l
     18.22750000	     -4.46476829	     -2.73020912	     11.19747343	      1.04530443	      0.91999484	      0.47210167	     -2.30435915	      1.75284294	    -18.41348141	     14.60192286	     14.60192286	     18.90786526	     -3.69943929	     -1.50840549	     26.07182731	     -1.33280474	      6.15612755	     25.72190069	     25.72190069	      6.65453312	    -13.24283658	      2.42359567	     -7.10045289	      1.73316729	      5.41564533	     64.14768594	    -16.45562876	     -0.01160981	     74.82372579	     44.88481545	      0.00000000	      0.00000000	    -13.27543279	    -11.08226609	     25.18345552	     27.66334348	     42.64562505	      0.00000000	      0.00000000
     18.25228571	     -4.64759216	     -2.69921767	     10.80740456	      1.04625277	      0.92006900	      0.46843564	     -2.52746767	      1.40485231	    -18.17376122	     14.62914063	     14.62914063	     18.74350711	     -3.46399831	     -1.50266814	     25.94152185	     -1.15339428	      5.97104430	     26.03991263	     26.03991263	      7.00818603	    -13.58003135	      2.44246386	     -7.07807176	      1.87913127	      5.48409352	     63.79318463	    -16.21352041	      0.09457133	     74.60506093	     44.88852073	      0.00000000	      0.00000000	    -12.80176034	    -11.31300936	     25.13217384	     27.77019957	     42.66726683	      0.00000000	      0.00000000
     18.27707143	     -4.87018323	     -2.66052962	     10.40997024	      1.04692582	      0.92003492	      0.46464206	     -2.61224284	      0.91220752	    -18.41348478	     14.85079321	     14.85079321	     18.58391217	     -2.52746618	     -1.96645689	     25.90197686	     -0.86619148	      6.03036399	     26.46656855	     26.46656855	      7.69098539	    -14.22973690	      3.62082900	     -6.98432448	      1.99748325	      5.80627756	     63.55636388	    -16.35715506	     -0.11215202	     73.09179465	     44.95621465	      0.00000000	      0.00000000	    -12.14232001	    -11.57896274	     25.06731438	     28.03009761	     42.73788834	      0.00000000	      0.00000000
     18.30185714	     -4.97804163	     -2.64711738	      9.98091129	      1.04761392	      0.92008107	      0.46101040	     -2.81829651	      0.55952253	    -18.14274010	     15.00359706	     15.00359706	     18.43427495	     -2.28393917	     -2.02627415	     25.70954896	     -0.73050137	      5.79394959	     26.79118106	     26.79118106	      8.06169161	    -14.57856204	      3.64875293	     -7.05793112	      2.20779533	      5.72729804	     62.88310542	    -16.11265635	     -0.01725147	     72.73182716	     44.96334776	      0.00000000	      0.00000000	    -11.58783262	    -11.76478461	     25.01469517	     28.16118029	     42.76067751	      0.00000000	      0.00000000
     18.32664286	     -5.16527078	     -2.54883637	      9.55395986	      1.04798798	      0.91993791	      0.45717987	     -2.80434382	     -0.06358506	    -18.43385740	     15.44260538	     15.44260538	     18.14155495	     -1.35877457	     -3.24808903	     25.71552889	     -0.40697910	      5.70631760	     27.40398528	     27.40398528	      9.37932417	    -14.84392620	      6.15359529	     -6.96742040	      2.30917457	      5.49542441	     62.61588140	    -15.48897469	     -0.62150130	     70.01849969	     45.09685443	      0.00000000	      0.00000000	    -11.02404473	    -11.92792223	     24.93087749	     28.26284815	     42.91658646	      0.00000000	      0.00000000
